<svg xmlns="http://www.w3.org/2000/svg" width="128" height="128" viewBox="0 0 128 128" fill="none">
  <title>MateHelper life buoy icon</title>
  <circle cx="64" cy="64" r="60" fill="#002b5a"/>
  <circle cx="64" cy="64" r="46" fill="#f5f6f7"/>
  <path d="M44 31.1A38 38 0 0 1 84 31.1" stroke="#0099cc" stroke-width="18" stroke-linecap="round"/>
  <path d="M96.9 44A38 38 0 0 1 96.9 84" stroke="#0099cc" stroke-width="18" stroke-linecap="round"/>
  <path d="M84 96.9A38 38 0 0 1 44 96.9" stroke="#0099cc" stroke-width="18" stroke-linecap="round"/>
  <path d="M31.1 84A38 38 0 0 1 31.1 44" stroke="#0099cc" stroke-width="18" stroke-linecap="round"/>
  <path d="M26 26L44 44" stroke="#f2711c" stroke-width="7" stroke-linecap="round"/>
  <path d="M102 26L84 44" stroke="#f2711c" stroke-width="7" stroke-linecap="round"/>
  <path d="M102 102L84 84" stroke="#f2711c" stroke-width="7" stroke-linecap="round"/>
  <path d="M26 102L44 84" stroke="#f2711c" stroke-width="7" stroke-linecap="round"/>
  <circle cx="64" cy="64" r="22" fill="#002b5a"/>
  <circle cx="64" cy="64" r="9" fill="#0099cc"/>
</svg>
